<svg width="184" height="101" viewBox="0 0 184 101" fill="none" xmlns="http://www.w3.org/2000/svg">
<path d="M38.8621 74.5388C31.7241 74.5388 26.1723 80.2725 26.1723 87.6444C26.1723 95.0164 31.7241 100.75 38.8621 100.75C46 100.75 51.5518 95.0164 51.5518 87.6444C51.5518 80.2725 46 74.5388 38.8621 74.5388ZM114.207 0H107.862V15.9726H131.655L114.207 0ZM0.793031 90.1018H16.6551C16.6551 90.1018 17.4482 65.5286 40.4482 65.5286C57.5 65.5286 60.2758 90.1018 60.2758 90.1018H99.9312V0H0L0.793031 90.1018ZM150.69 74.5388C143.552 74.5388 138 80.2725 138 87.6444C138 95.0164 143.552 100.75 150.69 100.75C157.828 100.75 163.379 95.0164 163.379 87.6444C163.379 80.2725 157.431 74.5388 150.69 74.5388ZM135.621 20.4777H107.862V90.1018H131.655C131.655 90.1018 128.483 69.6241 151.483 69.6241C168.931 69.6241 168.535 90.1018 168.535 90.1018H183.207L184 59.3853L135.621 20.4777ZM131.655 73.7196H115.793V65.5286H131.655V73.7196ZM130.069 58.9757L114.207 49.1464V26.2114H130.069L171.311 58.9757H130.069Z" fill="white" fill-opacity="0.4"/>
</svg>
